<svg width="50" height="50" viewBox="0 0 50 50" fill="none" xmlns="http://www.w3.org/2000/svg">
<rect width="50" height="50" rx="25" fill="white" fill-opacity="0.35"/>
<path d="M14.2578 17.7812H19.5605C20.6478 17.7812 21.582 17.944 22.3633 18.2695C23.151 18.5951 23.7565 19.0768 24.1797 19.7148C24.6029 20.3529 24.8145 21.1374 24.8145 22.0684C24.8145 22.8301 24.6842 23.4844 24.4238 24.0312C24.1699 24.5716 23.8086 25.0241 23.3398 25.3887C22.8776 25.7467 22.334 26.0332 21.709 26.248L20.7812 26.7363H16.1719L16.1523 24.4512H19.5801C20.0944 24.4512 20.5208 24.36 20.8594 24.1777C21.1979 23.9954 21.4518 23.7415 21.6211 23.416C21.7969 23.0905 21.8848 22.7129 21.8848 22.2832C21.8848 21.8275 21.8001 21.4336 21.6309 21.1016C21.4616 20.7695 21.2044 20.5156 20.8594 20.3398C20.5143 20.1641 20.0814 20.0762 19.5605 20.0762H17.1875V32H14.2578V17.7812ZM22.207 32L18.9648 25.6621L22.0605 25.6426L25.3418 31.8633V32H22.207ZM33.1445 29.4707V21.4336H35.957V32H33.3105L33.1445 29.4707ZM33.457 27.3027L34.2871 27.2832C34.2871 27.9863 34.2057 28.6406 34.043 29.2461C33.8802 29.8451 33.6361 30.3659 33.3105 30.8086C32.985 31.2448 32.5749 31.5866 32.0801 31.834C31.5853 32.0749 31.0026 32.1953 30.332 32.1953C29.8177 32.1953 29.3424 32.1237 28.9062 31.9805C28.4766 31.8307 28.1055 31.5996 27.793 31.2871C27.487 30.9681 27.2461 30.5612 27.0703 30.0664C26.901 29.5651 26.8164 28.9629 26.8164 28.2598V21.4336H29.6289V28.2793C29.6289 28.5918 29.6647 28.8555 29.7363 29.0703C29.8145 29.2852 29.9219 29.4609 30.0586 29.5977C30.1953 29.7344 30.3548 29.832 30.5371 29.8906C30.7259 29.9492 30.9342 29.9785 31.1621 29.9785C31.7415 29.9785 32.1973 29.8613 32.5293 29.627C32.8678 29.3926 33.1055 29.0736 33.2422 28.6699C33.3854 28.2598 33.457 27.804 33.457 27.3027Z" fill="white"/>
</svg>
